<svg width="1400" height="640" viewBox="0 0 1400 640" xmlns="http://www.w3.org/2000/svg" role="img" aria-label="Flow lines with bamboo accent">
  <defs>
    <linearGradient id="bg" x1="0" y1="0" x2="1" y2="1">
      <stop offset="0%" stop-color="#0c0f0c" />
      <stop offset="100%" stop-color="#101b10" />
    </linearGradient>
    <linearGradient id="line" x1="0" y1="0" x2="1" y2="0">
      <stop offset="0%" stop-color="#7abf75" stop-opacity="0.1" />
      <stop offset="60%" stop-color="#7abf75" stop-opacity="0.7" />
      <stop offset="100%" stop-color="#7abf75" stop-opacity="0.2" />
    </linearGradient>
  </defs>
  <rect width="1400" height="640" fill="url(#bg)" />
  <g fill="none" stroke="url(#line)" stroke-width="3">
    <path d="M-100 160 C200 120 320 260 560 220 C820 180 920 320 1180 260 C1340 220 1500 280 1500 280" />
    <path d="M-120 260 C120 220 320 360 520 320 C780 270 940 380 1220 330 C1400 300 1500 340 1500 340" />
    <path d="M-80 380 C220 340 360 440 600 400 C900 340 960 460 1260 420 C1440 400 1500 420 1500 420" />
  </g>
  <g opacity="0.45">
    <rect x="1020" y="-60" width="22" height="760" rx="7" fill="#7abf75" fill-opacity="0.25" />
    <rect x="1120" y="-60" width="14" height="760" rx="5" fill="#7abf75" fill-opacity="0.18" />
  </g>
</svg>
